<svg id="button" viewBox="0 0 256 256" >

	<g id="mask">
		<rect x="16" y="16" width="224" height="224"/>
	</g>
	<g id="border">
		<path d="M224,8H32C18.7,8,8,18.7,8,32v192c0,13.3,10.7,24,24,24h192c13.3,0,24-10.7,24-24V32C248,18.7,237.3,8,224,8z M224,232H32
			c-4.4,0-8-3.6-8-8V32c0-4.4,3.6-8,8-8h192c4.4,0,8,3.6,8,8v192C232,228.4,228.4,232,224,232z"/>
	</g>
	<g id="input">
		<g>
			<path d="M185,122.5l-49.7-24.7c-2.2-1.1-4.7-1.8-7.3-1.8s-5.1,0.6-7.3,1.8L71,122.5c-7.9,4-11,13.7-7,21.5c4,7.9,13.7,11,21.5,7
				l26.5-13.2V192c0,8.8,7.2,16,16,16s16-7.2,16-16v-54.2l26.5,13.2c7.9,4,17.5,0.9,21.5-7C196,136.1,192.9,126.5,185,122.5z"/>
			<path d="M192,48H64c-8.8,0-16,7.2-16,16s7.2,16,16,16h128c8.8,0,16-7.2,16-16S200.8,48,192,48z"/>
		</g>
	</g>
	<g id="output">
		<g>
			<path d="M71,133.5l49.7,24.7c2.2,1.1,4.7,1.8,7.3,1.8s5.1-0.6,7.3-1.8l49.7-24.7c7.9-4,11-13.7,7-21.5c-4-7.9-13.7-11-21.5-7
				L144,118.2V64c0-8.8-7.2-16-16-16s-16,7.2-16,16v54.2L85.5,105c-7.9-4-17.5-0.9-21.5,7C60,119.9,63.1,129.5,71,133.5z"/>
			<path d="M64,208h128c8.8,0,16-7.2,16-16s-7.2-16-16-16H64c-8.8,0-16,7.2-16,16S55.2,208,64,208z"/>
		</g>
	</g>
	<g id="clear">
		<path d="M184.6,161.9L94.1,71.4c-6.2-6.2-16.4-6.2-22.6,0s-6.2,16.4,0,22.6l90.5,90.5c6.2,6.2,16.4,6.2,22.6,0
			S190.8,168.2,184.6,161.9z"/>
		<path d="M94.1,184.6l90.5-90.5c6.2-6.2,6.2-16.4,0-22.6s-16.4-6.2-22.6,0l-90.5,90.5c-6.2,6.2-6.2,16.4,0,22.6
			S87.8,190.8,94.1,184.6z"/>
	</g>
	
</svg>
